<svg width="18" height="18" viewBox="0 0 18 18" fill="none" xmlns="http://www.w3.org/2000/svg">
<path d="M9 0C7.81331 0 6.65327 0.351892 5.66658 1.01118C4.67988 1.67047 3.91085 2.60754 3.45672 3.7039C3.0026 4.80026 2.88378 6.00665 3.11529 7.17054C3.3468 8.33443 3.91825 9.40353 4.75737 10.2426C5.59648 11.0818 6.66558 11.6532 7.82946 11.8847C8.99335 12.1162 10.1998 11.9974 11.2961 11.5433C12.3925 11.0892 13.3295 10.3201 13.9888 9.33342C14.6481 8.34672 15 7.18669 15 6C15 4.4087 14.3679 2.88258 13.2426 1.75736C12.1174 0.63214 10.5913 0 9 0ZM9 8.75L6.25 6L9 3.25L11.75 6L9 8.75Z" fill="#291CCB"/>
<path d="M15 18V13.5601H3V18H15Z" fill="#8981EF"/>
</svg>
