<svg width="18" height="19" viewBox="0 0 18 19" fill="none" xmlns="http://www.w3.org/2000/svg">
<path d="M11.2641 15.1727V18.169H6.75842V15.1727C8.211 15.717 9.8115 15.717 11.2641 15.1727Z" fill="#9199B1"/>
<path d="M11.2641 0V2.99626C9.8142 2.43731 8.2083 2.43731 6.75842 2.99626V0H11.2641Z" fill="#9199B1"/>
<path d="M4.85484 4.04378C3.63461 5.02767 2.83017 6.43543 2.60201 7.98623L0 6.4881L2.25283 2.54565L4.85484 4.04378Z" fill="#9199B1"/>
<path d="M18 11.6358L15.7472 15.5895L13.1451 14.0914C14.3704 13.107 15.1757 11.6937 15.398 10.1377L18 11.6358Z" fill="#9199B1"/>
<path d="M4.85484 14.0914L2.25283 15.5895L0 11.6358L2.60201 10.1377C2.82424 11.6937 3.62955 13.107 4.85484 14.0914Z" fill="#9199B1"/>
<path d="M18 6.4881L15.398 7.98623C15.1698 6.43543 14.3654 5.02767 13.1451 4.04378L15.7472 2.54565L18 6.4881Z" fill="#9199B1"/>
<path d="M15.8597 8.20021C15.8745 8.0956 15.8745 7.98943 15.8597 7.88482C15.6184 6.21756 14.7478 4.70601 13.4266 3.66077C13.366 3.58906 13.2936 3.52812 13.2126 3.48054C12.7563 3.11672 12.2473 2.82428 11.7032 2.6132L11.4329 2.50056C9.86367 1.91518 8.136 1.91518 6.56678 2.50056L6.29645 2.6132C5.7559 2.82451 5.2507 3.11698 4.7983 3.48054C4.71579 3.53071 4.6401 3.59128 4.57304 3.66077C3.25627 4.70979 2.3867 6.21945 2.13998 7.88482C2.13998 7.97493 2.13996 8.07631 2.08364 8.16642C2.00858 8.73844 2.00858 9.31781 2.08364 9.88983C2.08364 9.97995 2.08366 10.0926 2.13998 10.1827C2.3867 11.8481 3.25627 13.3577 4.57304 14.4068C4.63862 14.4767 4.71023 14.5408 4.78706 14.5982C5.24736 14.9562 5.75539 15.2481 6.29645 15.4656L6.56678 15.567C8.13255 16.1711 9.86712 16.1711 11.4329 15.567L11.7032 15.4656C12.2466 15.2458 12.7581 14.954 13.2239 14.5982C13.2991 14.5431 13.3672 14.4787 13.4266 14.4068C14.7478 13.3615 15.6184 11.85 15.8597 10.1827C15.8893 10.0875 15.9082 9.98925 15.916 9.88983C15.9664 9.60737 15.9891 9.32064 15.9836 9.03376C15.9688 8.75261 15.9273 8.4735 15.8597 8.20021ZM11.4892 10.453L11.3766 10.6445C11.1263 11.0442 10.7819 11.3765 10.3734 11.6121C9.96494 11.8478 9.50491 11.9797 9.03363 11.9962H8.85339C8.38211 11.9797 7.92209 11.8478 7.51361 11.6121C7.10514 11.3765 6.7607 11.0442 6.51047 10.6445C6.46705 10.5843 6.42934 10.5202 6.39782 10.453C6.18036 10.0399 6.06814 9.57948 6.07115 9.11261C6.06814 8.64214 6.1803 8.17808 6.39782 7.76091C6.4296 7.69742 6.46733 7.63708 6.51047 7.58069C6.7598 7.18103 7.1043 6.84941 7.51317 6.61549C7.92203 6.38157 8.3825 6.25264 8.85339 6.24026H9.10121C9.5721 6.25264 10.0326 6.38157 10.4414 6.61549C10.8503 6.84941 11.1948 7.18103 11.4441 7.58069C11.4441 7.64827 11.523 7.70459 11.5568 7.76091C11.7725 8.17926 11.8882 8.64196 11.8947 9.11261C11.8747 9.56619 11.7514 10.0092 11.5343 10.408L11.4892 10.453Z" fill="#5A6689"/>
</svg>
