<svg width="14" height="14" viewBox="0 0 14 14" fill="none" xmlns="http://www.w3.org/2000/svg">
<path d="M10.3333 1.66668H13C13.1768 1.66668 13.3464 1.73691 13.4714 1.86194C13.5964 1.98696 13.6667 2.15653 13.6667 2.33334V13C13.6667 13.1768 13.5964 13.3464 13.4714 13.4714C13.3464 13.5964 13.1768 13.6667 13 13.6667H1.00001C0.823199 13.6667 0.65363 13.5964 0.528606 13.4714C0.403581 13.3464 0.333344 13.1768 0.333344 13V2.33334C0.333344 2.15653 0.403581 1.98696 0.528606 1.86194C0.65363 1.73691 0.823199 1.66668 1.00001 1.66668H3.66668V0.333344H5.00001V1.66668H9.00001V0.333344H10.3333V1.66668ZM12.3333 7.00001H1.66668V12.3333H12.3333V7.00001ZM9.00001 3.00001H5.00001V4.33334H3.66668V3.00001H1.66668V5.66668H12.3333V3.00001H10.3333V4.33334H9.00001V3.00001ZM3.00001 8.33334H4.33334V9.66668H3.00001V8.33334ZM6.33334 8.33334H7.66668V9.66668H6.33334V8.33334ZM9.66668 8.33334H11V9.66668H9.66668V8.33334Z" fill="#979797"/>
</svg>
