<svg width="16" height="16" viewBox="0 0 16 16" fill="none" xmlns="http://www.w3.org/2000/svg">
<g clip-path="url(#clip0_81_103)">
<path d="M4.86067 13.8827L1.33334 14.6667L2.11734 11.1393C1.60102 10.1736 1.33169 9.09511 1.33334 8.00001C1.33334 4.31801 4.318 1.33334 8 1.33334C11.682 1.33334 14.6667 4.31801 14.6667 8.00001C14.6667 11.682 11.682 14.6667 8 14.6667C6.90491 14.6683 5.82641 14.399 4.86067 13.8827ZM5.054 12.474L5.48934 12.7073C6.2617 13.1201 7.12426 13.3352 8 13.3333C9.05484 13.3333 10.086 13.0205 10.963 12.4345C11.8401 11.8485 12.5237 11.0155 12.9274 10.041C13.331 9.06645 13.4366 7.99409 13.2309 6.95953C13.0251 5.92496 12.5171 4.97465 11.7712 4.22877C11.0254 3.48289 10.075 2.97494 9.04048 2.76916C8.00592 2.56337 6.93356 2.66899 5.95902 3.07265C4.98449 3.47632 4.15153 4.15991 3.5655 5.03697C2.97946 5.91403 2.66667 6.94518 2.66667 8.00001C2.66667 8.88934 2.88334 9.74534 3.29334 10.5107L3.526 10.946L3.08934 12.9107L5.054 12.474Z" fill="#979797"/>
</g>
<defs>
<clipPath id="clip0_81_103">
<rect width="16" height="16" fill="white"/>
</clipPath>
</defs>
</svg>
