<svg width="28" height="27" viewBox="0 0 28 27" fill="none" xmlns="http://www.w3.org/2000/svg">
<path d="M14 0.0826416C17.6227 0.0826416 18.0747 0.0959749 19.496 0.162642C20.916 0.229308 21.8827 0.451975 22.7334 0.782642C23.6134 1.12131 24.3547 1.57997 25.096 2.31997C25.774 2.9865 26.2986 3.79276 26.6334 4.68264C26.9627 5.53197 27.1867 6.49997 27.2534 7.91997C27.316 9.34131 27.3334 9.79331 27.3334 13.416C27.3334 17.0386 27.32 17.4906 27.2534 18.912C27.1867 20.332 26.9627 21.2986 26.6334 22.1493C26.2996 23.0397 25.7748 23.8461 25.096 24.512C24.4293 25.1897 23.6231 25.7143 22.7334 26.0493C21.884 26.3786 20.916 26.6026 19.496 26.6693C18.0747 26.732 17.6227 26.7493 14 26.7493C10.3774 26.7493 9.92535 26.736 8.50402 26.6693C7.08402 26.6026 6.11735 26.3786 5.26669 26.0493C4.37646 25.7153 3.57006 25.1906 2.90402 24.512C2.2259 23.8456 1.70126 23.0393 1.36669 22.1493C1.03602 21.3 0.813354 20.332 0.746687 18.912C0.68402 17.4906 0.666687 17.0386 0.666687 13.416C0.666687 9.79331 0.68002 9.34131 0.746687 7.91997C0.813354 6.49864 1.03602 5.53331 1.36669 4.68264C1.70034 3.79221 2.22509 2.98574 2.90402 2.31997C3.57025 1.64162 4.37659 1.11695 5.26669 0.782642C6.11735 0.451975 7.08269 0.229308 8.50402 0.162642C9.92535 0.0999749 10.3774 0.0826416 14 0.0826416ZM14 6.74931C12.2319 6.74931 10.5362 7.45169 9.28598 8.70193C8.03573 9.95217 7.33335 11.6479 7.33335 13.416C7.33335 15.1841 8.03573 16.8798 9.28598 18.13C10.5362 19.3803 12.2319 20.0826 14 20.0826C15.7681 20.0826 17.4638 19.3803 18.7141 18.13C19.9643 16.8798 20.6667 15.1841 20.6667 13.416C20.6667 11.6479 19.9643 9.95217 18.7141 8.70193C17.4638 7.45169 15.7681 6.74931 14 6.74931ZM22.6667 6.41598C22.6667 5.97395 22.4911 5.55002 22.1785 5.23746C21.866 4.9249 21.442 4.74931 21 4.74931C20.558 4.74931 20.1341 4.9249 19.8215 5.23746C19.5089 5.55002 19.3334 5.97395 19.3334 6.41598C19.3334 6.858 19.5089 7.28193 19.8215 7.59449C20.1341 7.90705 20.558 8.08264 21 8.08264C21.442 8.08264 21.866 7.90705 22.1785 7.59449C22.4911 7.28193 22.6667 6.858 22.6667 6.41598ZM14 9.41598C15.0609 9.41598 16.0783 9.8374 16.8284 10.5875C17.5786 11.3377 18 12.3551 18 13.416C18 14.4768 17.5786 15.4943 16.8284 16.2444C16.0783 16.9945 15.0609 17.416 14 17.416C12.9392 17.416 11.9217 16.9945 11.1716 16.2444C10.4214 15.4943 10 14.4768 10 13.416C10 12.3551 10.4214 11.3377 11.1716 10.5875C11.9217 9.8374 12.9392 9.41598 14 9.41598Z" fill="#7B61FF"/>
</svg>
