<svg width="28" height="23" viewBox="0 0 28 23" fill="none" xmlns="http://www.w3.org/2000/svg">
<path d="M27.5493 2.95737C26.5314 3.40763 25.452 3.70334 24.3467 3.83471C25.5117 3.13795 26.3836 2.04139 26.8 0.749373C25.7067 1.40004 24.508 1.85604 23.2587 2.10271C22.4195 1.20481 21.3072 0.609324 20.0946 0.408819C18.8821 0.208315 17.6373 0.414028 16.5537 0.993977C15.4701 1.57393 14.6085 2.49562 14.1028 3.61576C13.5971 4.73591 13.4757 5.99175 13.7573 7.18804C11.5402 7.07691 9.37112 6.50074 7.39106 5.49693C5.411 4.49311 3.66418 3.0841 2.26401 1.36137C1.7684 2.21264 1.50795 3.18034 1.50934 4.16537C1.50934 6.09871 2.49334 7.80671 3.98934 8.80671C3.10402 8.77884 2.23819 8.53975 1.46401 8.10937V8.17871C1.46428 9.46631 1.90983 10.7142 2.72514 11.7108C3.54044 12.7074 4.67532 13.3913 5.93734 13.6467C5.1155 13.8694 4.25375 13.9023 3.41734 13.7427C3.77317 14.851 4.46668 15.8203 5.4008 16.5149C6.33491 17.2094 7.46285 17.5944 8.62668 17.616C7.46998 18.5245 6.14558 19.196 4.72918 19.5923C3.31279 19.9885 1.83218 20.1017 0.372009 19.9254C2.92094 21.5646 5.88814 22.4349 8.91868 22.432C19.176 22.432 24.7853 13.9347 24.7853 6.56537C24.7853 6.32537 24.7787 6.08271 24.768 5.84537C25.8598 5.05626 26.8021 4.07873 27.5507 2.95871L27.5493 2.95737Z" fill="#7B61FF"/>
</svg>
