<svg width="16" height="16" viewBox="0 0 16 16" fill="none" xmlns="http://www.w3.org/2000/svg">
<g clip-path="url(#clip0_81_97)">
<path d="M2.66667 14.6667C2.66667 13.2522 3.22857 11.8956 4.22877 10.8954C5.22896 9.89523 6.58552 9.33332 8 9.33332C9.41449 9.33332 10.771 9.89523 11.7712 10.8954C12.7714 11.8956 13.3333 13.2522 13.3333 14.6667H12C12 13.6058 11.5786 12.5884 10.8284 11.8382C10.0783 11.0881 9.06087 10.6667 8 10.6667C6.93914 10.6667 5.92172 11.0881 5.17158 11.8382C4.42143 12.5884 4.00001 13.6058 4.00001 14.6667H2.66667ZM8 8.66666C5.79 8.66666 4.00001 6.87666 4.00001 4.66666C4.00001 2.45666 5.79 0.666656 8 0.666656C10.21 0.666656 12 2.45666 12 4.66666C12 6.87666 10.21 8.66666 8 8.66666ZM8 7.33332C9.47334 7.33332 10.6667 6.13999 10.6667 4.66666C10.6667 3.19332 9.47334 1.99999 8 1.99999C6.52667 1.99999 5.33334 3.19332 5.33334 4.66666C5.33334 6.13999 6.52667 7.33332 8 7.33332Z" fill="#979797"/>
</g>
<defs>
<clipPath id="clip0_81_97">
<rect width="16" height="16" fill="white"/>
</clipPath>
</defs>
</svg>
